<mxfile host="Electron" modified="2024-04-01T05:50:26.106Z" agent="Mozilla/5.0 (Windows NT 10.0; Win64; x64) AppleWebKit/537.36 (KHTML, like Gecko) draw.io/24.1.0 Chrome/120.0.6099.109 Electron/28.1.0 Safari/537.36" etag="-PhlY9wTv8eyNTINLYXU" version="24.1.0" type="device">
  <diagram name="Page-1" id="kw21SPdxHHbzCTwJDah2">
    <mxGraphModel dx="864" dy="516" grid="1" gridSize="10" guides="1" tooltips="1" connect="1" arrows="1" fold="1" page="1" pageScale="1" pageWidth="850" pageHeight="1100" math="0" shadow="0">
      <root>
        <mxCell id="0" />
        <mxCell id="1" parent="0" />
        <mxCell id="4gVCLVV7hHOJzYFpL2cY-6" value="" style="aspect=fixed;sketch=0;html=1;dashed=0;whitespace=wrap;fillColor=#2875E2;strokeColor=#ffffff;points=[[0.005,0.63,0],[0.1,0.2,0],[0.9,0.2,0],[0.5,0,0],[0.995,0.63,0],[0.72,0.99,0],[0.5,1,0],[0.28,0.99,0]];shape=mxgraph.kubernetes.icon2;prIcon=pod" vertex="1" parent="1">
          <mxGeometry x="160" y="490" width="70" height="67.2" as="geometry" />
        </mxCell>
        <mxCell id="4gVCLVV7hHOJzYFpL2cY-7" value="" style="aspect=fixed;sketch=0;html=1;dashed=0;whitespace=wrap;fillColor=#2875E2;strokeColor=#ffffff;points=[[0.005,0.63,0],[0.1,0.2,0],[0.9,0.2,0],[0.5,0,0],[0.995,0.63,0],[0.72,0.99,0],[0.5,1,0],[0.28,0.99,0]];shape=mxgraph.kubernetes.icon2;prIcon=node" vertex="1" parent="1">
          <mxGeometry x="520" y="330" width="110" height="105.6" as="geometry" />
        </mxCell>
        <mxCell id="4gVCLVV7hHOJzYFpL2cY-8" value="Nodo1" style="text;html=1;align=center;verticalAlign=middle;resizable=0;points=[];autosize=1;strokeColor=none;fillColor=none;" vertex="1" parent="1">
          <mxGeometry x="175" y="320" width="60" height="30" as="geometry" />
        </mxCell>
        <mxCell id="4gVCLVV7hHOJzYFpL2cY-11" value="Nodo2" style="text;html=1;align=center;verticalAlign=middle;resizable=0;points=[];autosize=1;strokeColor=none;fillColor=none;" vertex="1" parent="1">
          <mxGeometry x="550" y="310" width="60" height="30" as="geometry" />
        </mxCell>
        <mxCell id="4gVCLVV7hHOJzYFpL2cY-13" value="Pod" style="text;html=1;align=center;verticalAlign=middle;resizable=0;points=[];autosize=1;strokeColor=none;fillColor=none;fontStyle=1" vertex="1" parent="1">
          <mxGeometry x="140" y="469" width="40" height="30" as="geometry" />
        </mxCell>
        <mxCell id="4gVCLVV7hHOJzYFpL2cY-15" value="" style="aspect=fixed;sketch=0;html=1;dashed=0;whitespace=wrap;fillColor=#2875E2;strokeColor=#ffffff;points=[[0.005,0.63,0],[0.1,0.2,0],[0.9,0.2,0],[0.5,0,0],[0.995,0.63,0],[0.72,0.99,0],[0.5,1,0],[0.28,0.99,0]];shape=mxgraph.kubernetes.icon2;kubernetesLabel=1;prIcon=deploy" vertex="1" parent="1">
          <mxGeometry x="370" y="250" width="50" height="48" as="geometry" />
        </mxCell>
        <mxCell id="4gVCLVV7hHOJzYFpL2cY-18" value="" style="aspect=fixed;sketch=0;html=1;dashed=0;whitespace=wrap;fillColor=#2875E2;strokeColor=#ffffff;points=[[0.005,0.63,0],[0.1,0.2,0],[0.9,0.2,0],[0.5,0,0],[0.995,0.63,0],[0.72,0.99,0],[0.5,1,0],[0.28,0.99,0]];shape=mxgraph.kubernetes.icon2;kubernetesLabel=1;prIcon=secret" vertex="1" parent="1">
          <mxGeometry x="50" y="590" width="39.58" height="38" as="geometry" />
        </mxCell>
        <mxCell id="4gVCLVV7hHOJzYFpL2cY-19" value="" style="aspect=fixed;sketch=0;html=1;dashed=0;whitespace=wrap;fillColor=#2875E2;strokeColor=#ffffff;points=[[0.005,0.63,0],[0.1,0.2,0],[0.9,0.2,0],[0.5,0,0],[0.995,0.63,0],[0.72,0.99,0],[0.5,1,0],[0.28,0.99,0]];shape=mxgraph.kubernetes.icon2;prIcon=api" vertex="1" parent="1">
          <mxGeometry x="370" y="358.8" width="50" height="48" as="geometry" />
        </mxCell>
        <mxCell id="4gVCLVV7hHOJzYFpL2cY-22" value="API" style="text;html=1;align=center;verticalAlign=middle;resizable=0;points=[];autosize=1;strokeColor=none;fillColor=none;" vertex="1" parent="1">
          <mxGeometry x="400" y="572" width="40" height="30" as="geometry" />
        </mxCell>
        <mxCell id="4gVCLVV7hHOJzYFpL2cY-32" style="edgeStyle=orthogonalEdgeStyle;rounded=0;orthogonalLoop=1;jettySize=auto;html=1;exitX=0.5;exitY=0;exitDx=0;exitDy=0;exitPerimeter=0;" edge="1" parent="1" source="4gVCLVV7hHOJzYFpL2cY-23">
          <mxGeometry relative="1" as="geometry">
            <mxPoint x="185" y="560" as="targetPoint" />
          </mxGeometry>
        </mxCell>
        <mxCell id="4gVCLVV7hHOJzYFpL2cY-23" value="" style="aspect=fixed;sketch=0;html=1;dashed=0;whitespace=wrap;fillColor=#2875E2;strokeColor=#ffffff;points=[[0.005,0.63,0],[0.1,0.2,0],[0.9,0.2,0],[0.5,0,0],[0.995,0.63,0],[0.72,0.99,0],[0.5,1,0],[0.28,0.99,0]];shape=mxgraph.kubernetes.icon2;prIcon=ing" vertex="1" parent="1">
          <mxGeometry x="165.21" y="602" width="39.58" height="38" as="geometry" />
        </mxCell>
        <mxCell id="4gVCLVV7hHOJzYFpL2cY-24" value="" style="aspect=fixed;sketch=0;html=1;dashed=0;whitespace=wrap;fillColor=#2875E2;strokeColor=#ffffff;points=[[0.005,0.63,0],[0.1,0.2,0],[0.9,0.2,0],[0.5,0,0],[0.995,0.63,0],[0.72,0.99,0],[0.5,1,0],[0.28,0.99,0]];shape=mxgraph.kubernetes.icon2;prIcon=limits" vertex="1" parent="1">
          <mxGeometry x="265" y="580" width="50" height="48" as="geometry" />
        </mxCell>
        <mxCell id="4gVCLVV7hHOJzYFpL2cY-25" value="&lt;span style=&quot;font-size: 11px;&quot;&gt;Secretos&lt;/span&gt;" style="text;html=1;align=center;verticalAlign=middle;resizable=0;points=[];autosize=1;strokeColor=none;fillColor=none;fontSize=11;" vertex="1" parent="1">
          <mxGeometry x="34.79" y="640" width="70" height="30" as="geometry" />
        </mxCell>
        <mxCell id="4gVCLVV7hHOJzYFpL2cY-28" value="Ingreso" style="text;html=1;align=center;verticalAlign=middle;resizable=0;points=[];autosize=1;strokeColor=none;fillColor=none;" vertex="1" parent="1">
          <mxGeometry x="155" y="640" width="60" height="30" as="geometry" />
        </mxCell>
        <mxCell id="4gVCLVV7hHOJzYFpL2cY-29" value="Replicas" style="text;html=1;align=center;verticalAlign=middle;resizable=0;points=[];autosize=1;strokeColor=none;fillColor=none;" vertex="1" parent="1">
          <mxGeometry x="255" y="640" width="70" height="30" as="geometry" />
        </mxCell>
        <mxCell id="4gVCLVV7hHOJzYFpL2cY-30" value="" style="aspect=fixed;sketch=0;html=1;dashed=0;whitespace=wrap;fillColor=#2875E2;strokeColor=#ffffff;points=[[0.005,0.63,0],[0.1,0.2,0],[0.9,0.2,0],[0.5,0,0],[0.995,0.63,0],[0.72,0.99,0],[0.5,1,0],[0.28,0.99,0]];shape=mxgraph.kubernetes.icon2;prIcon=user" vertex="1" parent="1">
          <mxGeometry x="365" y="752" width="50" height="48" as="geometry" />
        </mxCell>
        <mxCell id="4gVCLVV7hHOJzYFpL2cY-31" style="edgeStyle=orthogonalEdgeStyle;rounded=0;orthogonalLoop=1;jettySize=auto;html=1;entryX=0.758;entryY=-0.026;entryDx=0;entryDy=0;entryPerimeter=0;" edge="1" parent="1" source="4gVCLVV7hHOJzYFpL2cY-6" target="4gVCLVV7hHOJzYFpL2cY-18">
          <mxGeometry relative="1" as="geometry" />
        </mxCell>
        <mxCell id="4gVCLVV7hHOJzYFpL2cY-33" style="edgeStyle=orthogonalEdgeStyle;rounded=0;orthogonalLoop=1;jettySize=auto;html=1;exitX=0.5;exitY=0;exitDx=0;exitDy=0;exitPerimeter=0;entryX=0.995;entryY=0.63;entryDx=0;entryDy=0;entryPerimeter=0;" edge="1" parent="1" source="4gVCLVV7hHOJzYFpL2cY-24" target="4gVCLVV7hHOJzYFpL2cY-6">
          <mxGeometry relative="1" as="geometry" />
        </mxCell>
        <mxCell id="4gVCLVV7hHOJzYFpL2cY-38" value="" style="aspect=fixed;sketch=0;html=1;dashed=0;whitespace=wrap;fillColor=#2875E2;strokeColor=#ffffff;points=[[0.005,0.63,0],[0.1,0.2,0],[0.9,0.2,0],[0.5,0,0],[0.995,0.63,0],[0.72,0.99,0],[0.5,1,0],[0.28,0.99,0]];shape=mxgraph.kubernetes.icon2;prIcon=pod" vertex="1" parent="1">
          <mxGeometry x="550" y="478" width="70" height="67.2" as="geometry" />
        </mxCell>
        <mxCell id="4gVCLVV7hHOJzYFpL2cY-39" value="Pod" style="text;html=1;align=center;verticalAlign=middle;resizable=0;points=[];autosize=1;strokeColor=none;fillColor=none;fontStyle=1" vertex="1" parent="1">
          <mxGeometry x="530" y="457" width="40" height="30" as="geometry" />
        </mxCell>
        <mxCell id="4gVCLVV7hHOJzYFpL2cY-40" value="" style="aspect=fixed;sketch=0;html=1;dashed=0;whitespace=wrap;fillColor=#2875E2;strokeColor=#ffffff;points=[[0.005,0.63,0],[0.1,0.2,0],[0.9,0.2,0],[0.5,0,0],[0.995,0.63,0],[0.72,0.99,0],[0.5,1,0],[0.28,0.99,0]];shape=mxgraph.kubernetes.icon2;kubernetesLabel=1;prIcon=secret" vertex="1" parent="1">
          <mxGeometry x="440" y="578" width="39.58" height="38" as="geometry" />
        </mxCell>
        <mxCell id="4gVCLVV7hHOJzYFpL2cY-41" style="edgeStyle=orthogonalEdgeStyle;rounded=0;orthogonalLoop=1;jettySize=auto;html=1;exitX=0.5;exitY=0;exitDx=0;exitDy=0;exitPerimeter=0;" edge="1" parent="1" source="4gVCLVV7hHOJzYFpL2cY-42">
          <mxGeometry relative="1" as="geometry">
            <mxPoint x="575" y="548" as="targetPoint" />
          </mxGeometry>
        </mxCell>
        <mxCell id="4gVCLVV7hHOJzYFpL2cY-42" value="" style="aspect=fixed;sketch=0;html=1;dashed=0;whitespace=wrap;fillColor=#2875E2;strokeColor=#ffffff;points=[[0.005,0.63,0],[0.1,0.2,0],[0.9,0.2,0],[0.5,0,0],[0.995,0.63,0],[0.72,0.99,0],[0.5,1,0],[0.28,0.99,0]];shape=mxgraph.kubernetes.icon2;prIcon=ing" vertex="1" parent="1">
          <mxGeometry x="555.21" y="590" width="39.58" height="38" as="geometry" />
        </mxCell>
        <mxCell id="4gVCLVV7hHOJzYFpL2cY-43" value="" style="aspect=fixed;sketch=0;html=1;dashed=0;whitespace=wrap;fillColor=#2875E2;strokeColor=#ffffff;points=[[0.005,0.63,0],[0.1,0.2,0],[0.9,0.2,0],[0.5,0,0],[0.995,0.63,0],[0.72,0.99,0],[0.5,1,0],[0.28,0.99,0]];shape=mxgraph.kubernetes.icon2;prIcon=limits" vertex="1" parent="1">
          <mxGeometry x="655" y="568" width="50" height="48" as="geometry" />
        </mxCell>
        <mxCell id="4gVCLVV7hHOJzYFpL2cY-44" style="edgeStyle=orthogonalEdgeStyle;rounded=0;orthogonalLoop=1;jettySize=auto;html=1;entryX=0.758;entryY=-0.026;entryDx=0;entryDy=0;entryPerimeter=0;" edge="1" parent="1" source="4gVCLVV7hHOJzYFpL2cY-38" target="4gVCLVV7hHOJzYFpL2cY-40">
          <mxGeometry relative="1" as="geometry" />
        </mxCell>
        <mxCell id="4gVCLVV7hHOJzYFpL2cY-45" style="edgeStyle=orthogonalEdgeStyle;rounded=0;orthogonalLoop=1;jettySize=auto;html=1;exitX=0.5;exitY=0;exitDx=0;exitDy=0;exitPerimeter=0;entryX=0.995;entryY=0.63;entryDx=0;entryDy=0;entryPerimeter=0;" edge="1" parent="1" source="4gVCLVV7hHOJzYFpL2cY-43" target="4gVCLVV7hHOJzYFpL2cY-38">
          <mxGeometry relative="1" as="geometry" />
        </mxCell>
        <mxCell id="4gVCLVV7hHOJzYFpL2cY-46" style="edgeStyle=orthogonalEdgeStyle;rounded=0;orthogonalLoop=1;jettySize=auto;html=1;entryX=0.5;entryY=0;entryDx=0;entryDy=0;entryPerimeter=0;" edge="1" parent="1" target="4gVCLVV7hHOJzYFpL2cY-38">
          <mxGeometry relative="1" as="geometry">
            <mxPoint x="585" y="434" as="sourcePoint" />
          </mxGeometry>
        </mxCell>
        <mxCell id="4gVCLVV7hHOJzYFpL2cY-47" value="" style="aspect=fixed;sketch=0;html=1;dashed=0;whitespace=wrap;fillColor=#2875E2;strokeColor=#ffffff;points=[[0.005,0.63,0],[0.1,0.2,0],[0.9,0.2,0],[0.5,0,0],[0.995,0.63,0],[0.72,0.99,0],[0.5,1,0],[0.28,0.99,0]];shape=mxgraph.kubernetes.icon2;prIcon=node" vertex="1" parent="1">
          <mxGeometry x="150" y="350" width="110" height="105.6" as="geometry" />
        </mxCell>
        <mxCell id="4gVCLVV7hHOJzYFpL2cY-48" value="&lt;span style=&quot;font-size: 11px;&quot;&gt;Secretos&lt;/span&gt;" style="text;html=1;align=center;verticalAlign=middle;resizable=0;points=[];autosize=1;strokeColor=none;fillColor=none;fontSize=11;" vertex="1" parent="1">
          <mxGeometry x="414.79" y="628" width="70" height="30" as="geometry" />
        </mxCell>
        <mxCell id="4gVCLVV7hHOJzYFpL2cY-49" value="Ingreso" style="text;html=1;align=center;verticalAlign=middle;resizable=0;points=[];autosize=1;strokeColor=none;fillColor=none;" vertex="1" parent="1">
          <mxGeometry x="535" y="628" width="60" height="30" as="geometry" />
        </mxCell>
        <mxCell id="4gVCLVV7hHOJzYFpL2cY-50" value="Replicas" style="text;html=1;align=center;verticalAlign=middle;resizable=0;points=[];autosize=1;strokeColor=none;fillColor=none;" vertex="1" parent="1">
          <mxGeometry x="635" y="628" width="70" height="30" as="geometry" />
        </mxCell>
        <mxCell id="4gVCLVV7hHOJzYFpL2cY-53" style="edgeStyle=orthogonalEdgeStyle;rounded=0;orthogonalLoop=1;jettySize=auto;html=1;entryX=0.909;entryY=0.322;entryDx=0;entryDy=0;entryPerimeter=0;" edge="1" parent="1" source="4gVCLVV7hHOJzYFpL2cY-19" target="4gVCLVV7hHOJzYFpL2cY-47">
          <mxGeometry relative="1" as="geometry" />
        </mxCell>
        <mxCell id="4gVCLVV7hHOJzYFpL2cY-54" style="edgeStyle=orthogonalEdgeStyle;rounded=0;orthogonalLoop=1;jettySize=auto;html=1;entryX=0.027;entryY=0.502;entryDx=0;entryDy=0;entryPerimeter=0;" edge="1" parent="1" source="4gVCLVV7hHOJzYFpL2cY-19" target="4gVCLVV7hHOJzYFpL2cY-7">
          <mxGeometry relative="1" as="geometry" />
        </mxCell>
        <mxCell id="4gVCLVV7hHOJzYFpL2cY-55" value="&lt;b&gt;API&lt;/b&gt;" style="text;html=1;align=center;verticalAlign=middle;resizable=0;points=[];autosize=1;strokeColor=none;fillColor=none;" vertex="1" parent="1">
          <mxGeometry x="370" y="408" width="40" height="30" as="geometry" />
        </mxCell>
        <mxCell id="4gVCLVV7hHOJzYFpL2cY-56" style="edgeStyle=orthogonalEdgeStyle;rounded=0;orthogonalLoop=1;jettySize=auto;html=1;entryX=0.5;entryY=0;entryDx=0;entryDy=0;entryPerimeter=0;" edge="1" parent="1" source="4gVCLVV7hHOJzYFpL2cY-15" target="4gVCLVV7hHOJzYFpL2cY-19">
          <mxGeometry relative="1" as="geometry" />
        </mxCell>
        <mxCell id="4gVCLVV7hHOJzYFpL2cY-57" style="edgeStyle=orthogonalEdgeStyle;rounded=0;orthogonalLoop=1;jettySize=auto;html=1;entryX=0.643;entryY=0.119;entryDx=0;entryDy=0;entryPerimeter=0;" edge="1" parent="1" source="4gVCLVV7hHOJzYFpL2cY-47" target="4gVCLVV7hHOJzYFpL2cY-6">
          <mxGeometry relative="1" as="geometry" />
        </mxCell>
        <mxCell id="4gVCLVV7hHOJzYFpL2cY-58" value="" style="image;sketch=0;aspect=fixed;html=1;points=[];align=center;fontSize=12;image=img/lib/mscae/Kubernetes_Services.svg;" vertex="1" parent="1">
          <mxGeometry x="325" y="188" width="50" height="37" as="geometry" />
        </mxCell>
        <mxCell id="4gVCLVV7hHOJzYFpL2cY-59" value="" style="image;sketch=0;aspect=fixed;html=1;points=[];align=center;fontSize=12;image=img/lib/mscae/Docker.svg;" vertex="1" parent="1">
          <mxGeometry x="430" y="186" width="50" height="41" as="geometry" />
        </mxCell>
        <mxCell id="4gVCLVV7hHOJzYFpL2cY-62" value="" style="shape=curlyBracket;whiteSpace=wrap;html=1;rounded=1;labelPosition=left;verticalLabelPosition=middle;align=right;verticalAlign=middle;rotation=0;direction=north;fillStyle=solid;strokeWidth=2;" vertex="1" parent="1">
          <mxGeometry x="70" y="690" width="650" height="20" as="geometry" />
        </mxCell>
        <mxCell id="4gVCLVV7hHOJzYFpL2cY-64" value="" style="endArrow=classic;startArrow=classic;html=1;rounded=0;entryX=0.02;entryY=0.585;entryDx=0;entryDy=0;entryPerimeter=0;exitX=0.7;exitY=0.595;exitDx=0;exitDy=0;exitPerimeter=0;" edge="1" parent="1" source="4gVCLVV7hHOJzYFpL2cY-58" target="4gVCLVV7hHOJzYFpL2cY-59">
          <mxGeometry width="50" height="50" relative="1" as="geometry">
            <mxPoint x="400" y="450" as="sourcePoint" />
            <mxPoint x="450" y="400" as="targetPoint" />
            <Array as="points" />
          </mxGeometry>
        </mxCell>
        <mxCell id="4gVCLVV7hHOJzYFpL2cY-65" value="" style="endArrow=classic;html=1;rounded=0;entryX=0.52;entryY=0.188;entryDx=0;entryDy=0;entryPerimeter=0;" edge="1" parent="1" target="4gVCLVV7hHOJzYFpL2cY-15">
          <mxGeometry width="50" height="50" relative="1" as="geometry">
            <mxPoint x="400" y="210" as="sourcePoint" />
            <mxPoint x="450" y="400" as="targetPoint" />
          </mxGeometry>
        </mxCell>
        <mxCell id="4gVCLVV7hHOJzYFpL2cY-66" value="Usuarios" style="text;html=1;align=center;verticalAlign=middle;resizable=0;points=[];autosize=1;strokeColor=none;fillColor=none;" vertex="1" parent="1">
          <mxGeometry x="355" y="800" width="70" height="30" as="geometry" />
        </mxCell>
        <mxCell id="4gVCLVV7hHOJzYFpL2cY-67" value="&lt;b&gt;http://127.0.0.1:51945/api/&lt;/b&gt;" style="text;html=1;align=center;verticalAlign=middle;resizable=0;points=[];autosize=1;strokeColor=none;fillColor=none;" vertex="1" parent="1">
          <mxGeometry x="315" y="710" width="170" height="30" as="geometry" />
        </mxCell>
        <mxCell id="4gVCLVV7hHOJzYFpL2cY-68" value="&amp;nbsp;&lt;b&gt;&lt;font style=&quot;font-size: 14px;&quot;&gt;10.244.0.40&lt;/font&gt;&lt;/b&gt;" style="text;html=1;align=center;verticalAlign=middle;resizable=0;points=[];autosize=1;strokeColor=none;fillColor=none;" vertex="1" parent="1">
          <mxGeometry x="210" y="468" width="100" height="30" as="geometry" />
        </mxCell>
        <mxCell id="4gVCLVV7hHOJzYFpL2cY-69" value="&amp;nbsp;&lt;b&gt;&lt;font style=&quot;font-size: 14px;&quot;&gt;10.244.0.41&lt;/font&gt;&lt;/b&gt;" style="text;html=1;align=center;verticalAlign=middle;resizable=0;points=[];autosize=1;strokeColor=none;fillColor=none;" vertex="1" parent="1">
          <mxGeometry x="605" y="455.6" width="100" height="30" as="geometry" />
        </mxCell>
      </root>
    </mxGraphModel>
  </diagram>
</mxfile>
